HIERARCHY
ROOT hips_JNT
{
    OFFSET 0 0 0
    CHANNELS 6 Xposition Yposition Zposition Zrotation Xrotation Yrotation
    JOINT spine_JNT
    {
        OFFSET -0.000424254 9.31981 2.54342
        CHANNELS 3 Zrotation Xrotation Yrotation
        JOINT spine1_JNT
        {
            OFFSET 0 10.8731 -4.54485e-05
            CHANNELS 3 Zrotation Xrotation Yrotation
            JOINT spine2_JNT
            {
                OFFSET 0 12.4264 -5.95116
                CHANNELS 3 Zrotation Xrotation Yrotation
                JOINT neck_JNT
                {
                    OFFSET 0 13.9797 -1.46048
                    CHANNELS 3 Zrotation Xrotation Yrotation
                    JOINT head_JNT
                    {
                        OFFSET 0 5.8702 2.0915
                        CHANNELS 3 Zrotation Xrotation Yrotation
                        End Site
                        {
                            OFFSET 0 0 0
                        }
                    }
                }
                JOINT l_shoulder_JNT
                {
                    OFFSET 4.39914 12.861 -1.48501
                    CHANNELS 3 Zrotation Xrotation Yrotation
                    JOINT l_arm_JNT
                    {
                        OFFSET 8.75735 -2.31198 -0.0490516
                        CHANNELS 3 Zrotation Xrotation Yrotation
                        JOINT l_forearm_JNT
                        {
                            OFFSET 26.9001 -4.76837e-05 1.2666e-05
                            CHANNELS 3 Zrotation Xrotation Yrotation
                            JOINT l_hand_JNT
                            {
                                OFFSET 23.0148 -4.76837e-05 -3.72529e-06
                                CHANNELS 3 Zrotation Xrotation Yrotation
                                JOINT l_handThumb1_JNT
                                {
                                    OFFSET 3.63 -0.779998 2.13
                                    CHANNELS 3 Zrotation Xrotation Yrotation
                                    JOINT l_handThumb2_JNT
                                    {
                                        OFFSET 3.55114 -2.11837 2.24006
                                        CHANNELS 3 Zrotation Xrotation Yrotation
                                        JOINT l_handThumb3_JNT
                                        {
                                            OFFSET 2.15911 -1.11631 0.963467
                                            CHANNELS 3 Zrotation Xrotation Yrotation
                                            End Site
                                            {
                                                OFFSET 0 0 0
                                            }
                                        }
                                    }
                                }
                                JOINT l_handIndex1_JNT
                                {
                                    OFFSET 10.5149 -0.0410199 2.19757
                                    CHANNELS 3 Zrotation Xrotation Yrotation
                                    JOINT l_handIndex2_JNT
                                    {
                                        OFFSET 2.75183 -0.102866 -0.139054
                                        CHANNELS 3 Zrotation Xrotation Yrotation
                                        JOINT l_handIndex3_JNT
                                        {
                                            OFFSET 2.35301 -0.0733972 -0.0904871
                                            CHANNELS 3 Zrotation Xrotation Yrotation
                                            End Site
                                            {
                                                OFFSET 0 0 0
                                            }
                                        }
                                    }
                                }
                                JOINT l_handMiddle1_JNT
                                {
                                    OFFSET 10.0671 0.139201 0.0595726
                                    CHANNELS 3 Zrotation Xrotation Yrotation
                                    JOINT l_handMiddle2_JNT
                                    {
                                        OFFSET 3.90903 -0.288403 -0.119066
                                        CHANNELS 3 Zrotation Xrotation Yrotation
                                        JOINT l_handMiddle3_JNT
                                        {
                                            OFFSET 2.3284 -0.0191092 -0.0594396
                                            CHANNELS 3 Zrotation Xrotation Yrotation
                                            End Site
                                            {
                                                OFFSET 0 0 0
                                            }
                                        }
                                    }
                                }
                                JOINT l_handRing1_JNT
                                {
                                    OFFSET 9.46811 0.132239 -1.80983
                                    CHANNELS 3 Zrotation Xrotation Yrotation
                                    JOINT l_handRing2_JNT
                                    {
                                        OFFSET 3.28153 -0.224054 -0.0339366
                                        CHANNELS 3 Zrotation Xrotation Yrotation
                                        JOINT l_handRing3_JNT
                                        {
                                            OFFSET 2.245 -0.0702143 -0.00838935
                                            CHANNELS 3 Zrotation Xrotation Yrotation
                                            End Site
                                            {
                                                OFFSET 0 0 0
                                            }
                                        }
                                    }
                                }
                                JOINT l_handPinky1_JNT
                                {
                                    OFFSET 8.49077 -0.0777721 -3.58415
                                    CHANNELS 3 Zrotation Xrotation Yrotation
                                    JOINT l_handPinky2_JNT
                                    {
                                        OFFSET 2.53217 -0.0730753 -0.0170402
                                        CHANNELS 3 Zrotation Xrotation Yrotation
                                        JOINT l_handPinky3_JNT
                                        {
                                            OFFSET 1.95121 0.0251174 0.0170089
                                            CHANNELS 3 Zrotation Xrotation Yrotation
                                            End Site
                                            {
                                                OFFSET 0 0 0
                                            }
                                        }
                                    }
                                }
                            }
                        }
                    }
                }
                JOINT r_shoulder_JNT
                {
                    OFFSET -4.39782 12.8606 -1.48501
                    CHANNELS 3 Zrotation Xrotation Yrotation
                    JOINT r_arm_JNT
                    {
                        OFFSET -8.75732 -2.312 -0.0490502
                        CHANNELS 3 Zrotation Xrotation Yrotation
                        JOINT r_forearm_JNT
                        {
                            OFFSET -26.9 0 1.00583e-05
                            CHANNELS 3 Zrotation Xrotation Yrotation
                            JOINT r_hand_JNT
                            {
                                OFFSET -23.0149 0 0
                                CHANNELS 3 Zrotation Xrotation Yrotation
                                JOINT r_handThumb1_JNT
                                {
                                    OFFSET -3.63 -0.779998 2.13
                                    CHANNELS 3 Zrotation Xrotation Yrotation
                                    JOINT r_handThumb2_JNT
                                    {
                                        OFFSET -3.5512 -2.118 2.24006
                                        CHANNELS 3 Zrotation Xrotation Yrotation
                                        JOINT r_handThumb3_JNT
                                        {
                                            OFFSET -2.1591 -1.116 0.963467
                                            CHANNELS 3 Zrotation Xrotation Yrotation
                                            End Site
                                            {
                                                OFFSET 0 0 0
                                            }
                                        }
                                    }
                                }
                                JOINT r_handIndex1_JNT
                                {
                                    OFFSET -10.5149 -0.0409961 2.19756
                                    CHANNELS 3 Zrotation Xrotation Yrotation
                                    JOINT r_handIndex2_JNT
                                    {
                                        OFFSET -2.7518 -0.102997 -0.13905
                                        CHANNELS 3 Zrotation Xrotation Yrotation
                                        JOINT r_handIndex3_JNT
                                        {
                                            OFFSET -2.353 -0.0730038 -0.0904899
                                            CHANNELS 3 Zrotation Xrotation Yrotation
                                            End Site
                                            {
                                                OFFSET 0 0 0
                                            }
                                        }
                                    }
                                }
                                JOINT r_handMiddle1_JNT
                                {
                                    OFFSET -10.0671 0.139999 0.05957
                                    CHANNELS 3 Zrotation Xrotation Yrotation
                                    JOINT r_handMiddle2_JNT
                                    {
                                        OFFSET -3.9091 -0.288999 -0.11907
                                        CHANNELS 3 Zrotation Xrotation Yrotation
                                        JOINT r_handMiddle3_JNT
                                        {
                                            OFFSET -2.3284 -0.019002 -0.05944
                                            CHANNELS 3 Zrotation Xrotation Yrotation
                                            End Site
                                            {
                                                OFFSET 0 0 0
                                            }
                                        }
                                    }
                                }
                                JOINT r_handRing1_JNT
                                {
                                    OFFSET -9.4681 0.133002 -1.80983
                                    CHANNELS 3 Zrotation Xrotation Yrotation
                                    JOINT r_handRing2_JNT
                                    {
                                        OFFSET -3.2816 -0.224996 -0.0339396
                                        CHANNELS 3 Zrotation Xrotation Yrotation
                                        JOINT r_handRing3_JNT
                                        {
                                            OFFSET -2.245 -0.0699997 -0.0083901
                                            CHANNELS 3 Zrotation Xrotation Yrotation
                                            End Site
                                            {
                                                OFFSET 0 0 0
                                            }
                                        }
                                    }
                                }
                                JOINT r_handPinky1_JNT
                                {
                                    OFFSET -8.4908 -0.0769973 -3.58415
                                    CHANNELS 3 Zrotation Xrotation Yrotation
                                    JOINT r_handPinky2_JNT
                                    {
                                        OFFSET -2.5322 -0.0740051 -0.0170402
                                        CHANNELS 3 Zrotation Xrotation Yrotation
                                        JOINT r_handPinky3_JNT
                                        {
                                            OFFSET -1.9512 0.0259995 0.0170097
                                            CHANNELS 3 Zrotation Xrotation Yrotation
                                            End Site
                                            {
                                                OFFSET 0 0 0
                                            }
                                        }
                                    }
                                }
                            }
                        }
                    }
                }
            }
        }
    }
    JOINT l_upleg_JNT
    {
        OFFSET 10.0614 -5.18575 -0.706233
        CHANNELS 3 Zrotation Xrotation Yrotation
        JOINT l_leg_JNT
        {
            OFFSET -0.348572 -45.5824 -0.819168
            CHANNELS 3 Zrotation Xrotation Yrotation
            JOINT l_foot_JNT
            {
                OFFSET 0.349145 -42.3325 -1.70849
                CHANNELS 3 Zrotation Xrotation Yrotation
                JOINT l_toebase_JNT
                {
                    OFFSET 0.0702709 -8.12666 12.8887
                    CHANNELS 3 Zrotation Xrotation Yrotation
                    End Site
                    {
                        OFFSET 0 0 0
                    }
                }
            }
        }
    }
    JOINT r_upleg_JNT
    {
        OFFSET -10.061 -5.18577 -0.706233
        CHANNELS 3 Zrotation Xrotation Yrotation
        JOINT r_leg_JNT
        {
            OFFSET 0.34858 -45.5824 -0.819165
            CHANNELS 3 Zrotation Xrotation Yrotation
            JOINT r_foot_JNT
            {
                OFFSET -0.34918 -42.3325 -1.70849
                CHANNELS 3 Zrotation Xrotation Yrotation
                JOINT r_toebase_JNT
                {
                    OFFSET -0.0702001 -8.12666 12.8887
                    CHANNELS 3 Zrotation Xrotation Yrotation
                    End Site
                    {
                        OFFSET 0 0 0
                    }
                }
            }
        }
    }
}
MOTION
Frames: 4
Frame Time: 0.033333
-0.083959 100.72 -0.107265 2.37533 1.42887 3.46153 -3.76192 0.00103651 0.0395647 0.358523 1.97916 -1.9053 -4.08392e-16 -4.25219e-07 0 4.20042 7.15101 -3.15785 -2.10871 -11.2013 -0.223812 -2.4256e-15 -8.50439e-07 0 -71.4044 -6.77767 9.42104 -17.5639 2.86926 -18.4165 -3.3584e-06 -4.13547e-07 0 4.10661 20.7048 -22.2077 -0 0 0 -17.7778 -0.273662 1.74983 -28.1473 8.05512 2.02131 -36.3397 10.0802 3.31553 -24.084 6.97956 1.48935 -32.8419 6.19036 1.82601 -42.3263 7.6699 2.97297 -28.1211 5.38521 1.34869 -37.3877 -3.47477 -1.17635 -48.1052 -4.25709 -1.9016 -32.0363 -3.03644 -0.870425 -41.1374 -7.49555 -2.81695 -53.0695 -9.08318 -4.54249 -35.2074 -6.57759 -2.08798 -2.4256e-15 -8.50439e-07 0 75.36 1.54983 -7.54692 10.3768 2.34543 25.409 2.24116e-05 -1.36604e-05 0 -4.10661 20.7048 22.2077 -0 0 0 17.7528 0.2729 1.74759 28.1072 8.04473 -2.01627 36.2875 10.068 -3.30702 24.0498 6.97033 -1.48619 32.7953 6.18263 -1.81999 42.2661 7.66115 -2.96532 28.0814 5.37826 -1.34579 37.335 -3.47059 1.17368 48.0373 -4.25258 1.89665 31.9911 -3.03263 0.872222 41.079 -7.48689 2.80861 52.9937 -9.07429 4.53041 35.1575 -6.56954 2.08385 -6.44927 4.52163 2.07104 -0.49025 -1.27778 -0.440574 4.31158 -4.40844 0.924496 4.53567e-07 -8.53774e-07 0 0.168548 -10.8511 0 0.486589 15.107 -0.213062 -3.08905 -5.32046 -0.193827 0.00223026 -0.806557 0.316518 
-0.110244 100.591 -0.111272 2.30054 1.36005 3.55833 -3.68132 0.00138254 0 0.37772 1.97729 -2.02981 -1.10057e-07 -9.62863e-17 0 4.12482 7.1257 -3.10081 -1.9751 -11.0997 -0.197823 -1.10057e-07 -2.11776e-07 0 -71.3625 -6.79526 9.45268 -17.4864 2.87688 -18.5465 6.67009e-09 -1.70755e-06 0 4.10661 20.7048 -22.2077 -0 0 0 -17.776 -0.27361 1.74849 -28.1446 8.05441 2.02131 -36.3361 10.0794 3.31553 -24.0816 6.97892 1.4904 -32.8386 6.18982 1.82558 -42.3221 7.66929 2.97244 -28.1184 5.38473 1.34927 -37.3841 -3.47448 -1.17768 -48.1005 -4.25678 -1.89954 -32.0331 -3.03618 -0.872222 -41.1334 -7.49495 -2.81556 -53.0643 -9.08257 -4.5418 -35.204 -6.57704 -2.08985 -1.10057e-07 -2.11776e-07 0 75.3042 1.621 -7.49777 10.3575 2.35113 25.5148 -5.33608e-08 -8.53774e-07 0 -4.10661 20.7048 22.2077 -0 0 0 17.7513 0.272855 1.7467 28.1049 8.04411 -2.01588 36.2845 10.0673 -3.30607 24.0477 6.96979 -1.48566 32.7926 6.18217 -1.82085 42.2625 7.66063 -2.9648 28.079 5.37785 -1.34579 37.3319 -3.47035 1.17368 48.0333 -4.25231 1.895 31.9885 -3.0324 0.869525 41.0755 -7.48638 2.80833 52.9892 -9.07376 4.53006 35.1545 -6.56906 2.08348 -6.34665 4.59677 2.0936 -0.490358 -1.27776 -0.451107 4.28398 -4.41611 0.816608 -5.33608e-08 -8.53774e-07 0 0.272396 -11.2669 0.068528 0.48905 16.1242 -0.220287 -3.11596 -5.85271 -0.326259 0.00223006 -0.806634 0.311533 
-0.152696 100.486 -0.108944 2.20818 1.28073 3.68817 -3.58365 0.0011812 0 0.398548 1.97544 -2.18506 -1.10057e-07 -2.01794e-16 0 4.0534 7.08636 -3.0458 -1.86458 -11.0058 -0.193827 -1.10057e-07 -2.01794e-16 0 -71.3214 -6.79328 9.4569 -17.4616 2.90661 -18.7612 -3.41509e-06 -8.53774e-07 0 4.10661 20.7048 -22.2077 -0 0 0 -17.7753 -0.273588 1.74938 -28.1434 8.05411 2.02247 -36.3346 10.079 3.31459 -24.0806 6.97866 1.48987 -32.8373 6.1896 1.82472 -42.3204 7.66905 2.97244 -28.1173 5.38454 1.34753 -37.3826 -3.47436 -1.17502 -48.0986 -4.25665 -1.9016 -32.0319 -3.03607 -0.872222 -41.1317 -7.49471 -2.81556 -53.0621 -9.08231 -4.54145 -35.2026 -6.57681 -2.08948 -1.10057e-07 -2.01794e-16 0 75.2433 1.74082 -7.43251 10.3448 2.36514 25.6922 -1.06722e-07 7.95139e-16 0 -4.10661 20.7048 22.2077 -0 0 0 17.7497 0.272806 1.74715 28.1023 8.04345 -2.01588 36.2811 10.0665 -3.30536 24.0455 6.96919 -1.48619 32.7896 6.18167 -1.82085 42.2587 7.66007 -2.96427 28.0765 5.3774 -1.34404 37.3285 -3.47008 1.17368 48.029 -4.25202 1.89541 31.9856 -3.03216 0.870425 41.0718 -7.48582 2.80805 52.9843 -9.07319 4.52937 35.1513 -6.56854 2.08272 -6.20946 4.68329 2.10887 -0.490334 -1.27776 -0.440574 4.24015 -4.42387 0.682993 -3.50358e-15 -8.27093e-07 0 0.403397 -11.5309 0 0.491061 16.861 -0.205584 -3.1543 -6.24641 -0.494163 0.00223089 -0.806714 0.314035 
-0.221752 100.402 -0.103035 2.10185 1.19325 3.85241 -3.47378 0.00135327 0 0.419778 1.97283 -2.37293 1.03387e-07 -4.27721e-07 0 3.98802 7.03236 -2.99579 -1.78096 -10.9304 -0.185575 7.50387e-07 6.27824e-07 0 -72.7963 2.37453 9.36766 -14.1404 2.73243 -21.7693 -6.83019e-06 5.08889e-14 0 4.10661 20.7048 -22.2077 -0 0 0 -17.776 -0.273608 1.74849 -28.1445 8.05438 2.02286 -36.3359 10.0794 3.31553 -24.0815 6.9789 1.49145 -32.8385 6.1898 1.82558 -42.322 7.66927 2.97191 -28.1183 5.38471 1.34985 -37.384 -3.47447 -1.17635 -48.1004 -4.25677 -1.90036 -32.033 -3.03617 -0.873119 -41.1332 -7.49493 -2.8164 -53.0641 -9.08254 -4.54163 -35.2038 -6.57702 -2.08835 7.50387e-07 6.27824e-07 0 75.1793 1.92141 -7.35284 10.3457 2.3904 25.9555 2.11843e-05 -1.70755e-05 0 -4.10661 20.7048 22.2077 -0 0 0 17.748 0.272754 1.7467 28.0996 8.04274 -2.01511 36.2776 10.0657 -3.30489 24.0432 6.96857 -1.48619 32.7865 6.18115 -1.81999 42.2546 7.65948 -2.96427 28.0738 5.37693 -1.34637 37.325 -3.4698 1.17368 48.0244 -4.25172 1.89459 31.9825 -3.0319 0.868625 41.0678 -7.48523 2.80693 52.9792 -9.07259 4.52833 35.148 -6.568 2.08272 -6.03484 4.77654 2.10924 -0.490301 -1.27777 -0.440574 4.17459 -4.42876 0.520393 4.26887e-07 -8.53774e-07 0 0.566097 -11.6756 0.0969133 0.492716 17.3749 -0.205584 -3.21082 -6.52829 -0.66793 0.00223031 -0.806795 0.311533 
